<?xml version="1.0" standalone="no"?>
<!DOCTYPE svg PUBLIC "-//W3C//DTD SVG 20010904//EN"
 "http://www.w3.org/TR/2001/REC-SVG-20010904/DTD/svg10.dtd">
<svg version="1.0" xmlns="http://www.w3.org/2000/svg"
 width="512.000000pt" height="512.000000pt" viewBox="0 0 512.000000 512.000000"
 preserveAspectRatio="xMidYMid meet">
<metadata>
Created by potrace 1.11, written by Peter Selinger 2001-2013
</metadata>
<g transform="translate(0.000000,512.000000) scale(0.100000,-0.100000)"
fill="#000000" stroke="none">
<path d="M0 3060 l0 -2060 415 0 415 0 0 2060 0 2060 -415 0 -415 0 0 -2060z"/>
<path d="M1980 3060 l0 -2060 1570 0 1570 0 0 2060 0 2060 -1570 0 -1570 0 0
-2060z m683 -634 c85 -41 133 -118 150 -238 l6 -38 -83 0 -82 0 -11 43 c-23
85 -93 121 -183 94 -81 -24 -118 -127 -71 -202 10 -16 98 -120 196 -230 218
-245 230 -266 230 -415 0 -92 -4 -112 -26 -160 -30 -63 -85 -122 -144 -153
-37 -20 -55 -22 -220 -22 -174 0 -182 1 -230 26 -84 43 -129 118 -137 229 l-3
45 83 3 82 3 0 -35 c0 -118 219 -159 268 -50 18 39 15 115 -7 149 -11 17 -96
116 -190 220 -190 211 -225 266 -236 370 -8 71 7 181 31 227 22 42 83 107 118
125 69 36 109 43 256 40 137 -2 148 -4 203 -31z m757 -566 l0 -600 225 0 225
0 0 -80 0 -80 -385 0 -385 0 0 673 c0 371 3 677 7 680 3 4 75 7 160 7 l153 0
0 -600z m1467 571 c65 -29 134 -101 159 -166 18 -47 19 -80 19 -490 l0 -440
-26 -55 c-30 -63 -86 -122 -144 -153 -38 -21 -53 -22 -285 -22 -232 0 -247 1
-285 22 -58 31 -114 90 -144 153 l-26 55 0 445 c0 433 1 446 21 491 26 56 86
124 128 146 73 38 107 42 321 40 197 -2 213 -3 262 -26z"/>
<path d="M4585 2290 c-47 -10 -74 -28 -95 -63 -19 -30 -20 -54 -20 -445 0
-448 0 -447 56 -491 56 -44 136 -36 190 20 l29 30 3 425 c2 367 1 428 -13 454
-26 51 -93 82 -150 70z"/>
<path d="M0 350 l0 -350 415 0 415 0 0 350 0 350 -415 0 -415 0 0 -350z"/>
<path d="M1980 350 l0 -350 1570 0 1570 0 0 350 0 350 -1570 0 -1570 0 0 -350z"/>
</g>
</svg>
